<mxfile host="app.diagrams.net" modified="2023-10-25T16:29:28.447Z" agent="Mozilla/5.0 (Windows NT 10.0; Win64; x64) AppleWebKit/537.36 (KHTML, like Gecko) Chrome/118.0.0.0 Safari/537.36" etag="QWgdtsPvd-0PJlzeuchl" version="22.0.8" type="github">
  <diagram id="C5RBs43oDa-KdzZeNtuy" name="Page-1">
    <mxGraphModel dx="1050" dy="566" grid="1" gridSize="10" guides="1" tooltips="1" connect="1" arrows="1" fold="1" page="1" pageScale="1" pageWidth="827" pageHeight="1169" math="0" shadow="0">
      <root>
        <mxCell id="WIyWlLk6GJQsqaUBKTNV-0" />
        <mxCell id="WIyWlLk6GJQsqaUBKTNV-1" parent="WIyWlLk6GJQsqaUBKTNV-0" />
        <mxCell id="8wQKcDK9LfEHcF6_p6gq-6" value="" style="edgeStyle=orthogonalEdgeStyle;rounded=0;orthogonalLoop=1;jettySize=auto;html=1;" edge="1" parent="WIyWlLk6GJQsqaUBKTNV-1" source="8wQKcDK9LfEHcF6_p6gq-0" target="8wQKcDK9LfEHcF6_p6gq-5">
          <mxGeometry relative="1" as="geometry" />
        </mxCell>
        <mxCell id="8wQKcDK9LfEHcF6_p6gq-0" value="Start" style="strokeWidth=2;html=1;shape=mxgraph.flowchart.start_1;whiteSpace=wrap;" vertex="1" parent="WIyWlLk6GJQsqaUBKTNV-1">
          <mxGeometry x="364" y="110" width="100" height="60" as="geometry" />
        </mxCell>
        <mxCell id="8wQKcDK9LfEHcF6_p6gq-8" value="" style="edgeStyle=orthogonalEdgeStyle;rounded=0;orthogonalLoop=1;jettySize=auto;html=1;" edge="1" parent="WIyWlLk6GJQsqaUBKTNV-1" source="8wQKcDK9LfEHcF6_p6gq-5" target="8wQKcDK9LfEHcF6_p6gq-7">
          <mxGeometry relative="1" as="geometry" />
        </mxCell>
        <mxCell id="8wQKcDK9LfEHcF6_p6gq-5" value="masukan bilangan" style="shape=parallelogram;perimeter=parallelogramPerimeter;whiteSpace=wrap;html=1;fixedSize=1;strokeWidth=2;" vertex="1" parent="WIyWlLk6GJQsqaUBKTNV-1">
          <mxGeometry x="354" y="190" width="120" height="60" as="geometry" />
        </mxCell>
        <mxCell id="8wQKcDK9LfEHcF6_p6gq-10" value="" style="edgeStyle=orthogonalEdgeStyle;rounded=0;orthogonalLoop=1;jettySize=auto;html=1;" edge="1" parent="WIyWlLk6GJQsqaUBKTNV-1" source="8wQKcDK9LfEHcF6_p6gq-7" target="8wQKcDK9LfEHcF6_p6gq-9">
          <mxGeometry relative="1" as="geometry" />
        </mxCell>
        <mxCell id="8wQKcDK9LfEHcF6_p6gq-7" value="bilangan dibagi dua" style="whiteSpace=wrap;html=1;strokeWidth=2;" vertex="1" parent="WIyWlLk6GJQsqaUBKTNV-1">
          <mxGeometry x="354" y="290" width="120" height="60" as="geometry" />
        </mxCell>
        <mxCell id="8wQKcDK9LfEHcF6_p6gq-12" value="ya" style="edgeStyle=orthogonalEdgeStyle;rounded=0;orthogonalLoop=1;jettySize=auto;html=1;" edge="1" parent="WIyWlLk6GJQsqaUBKTNV-1" source="8wQKcDK9LfEHcF6_p6gq-9" target="8wQKcDK9LfEHcF6_p6gq-11">
          <mxGeometry x="-0.2571" y="10" relative="1" as="geometry">
            <mxPoint as="offset" />
          </mxGeometry>
        </mxCell>
        <mxCell id="8wQKcDK9LfEHcF6_p6gq-16" value="tidak" style="edgeStyle=orthogonalEdgeStyle;rounded=0;orthogonalLoop=1;jettySize=auto;html=1;" edge="1" parent="WIyWlLk6GJQsqaUBKTNV-1" source="8wQKcDK9LfEHcF6_p6gq-9" target="8wQKcDK9LfEHcF6_p6gq-15">
          <mxGeometry x="-0.2" y="-24" relative="1" as="geometry">
            <mxPoint as="offset" />
          </mxGeometry>
        </mxCell>
        <mxCell id="8wQKcDK9LfEHcF6_p6gq-9" value="sisa = ?" style="rhombus;whiteSpace=wrap;html=1;strokeWidth=2;" vertex="1" parent="WIyWlLk6GJQsqaUBKTNV-1">
          <mxGeometry x="374" y="400" width="80" height="80" as="geometry" />
        </mxCell>
        <mxCell id="8wQKcDK9LfEHcF6_p6gq-11" value="bilangan genap" style="shape=parallelogram;perimeter=parallelogramPerimeter;whiteSpace=wrap;html=1;fixedSize=1;strokeWidth=2;" vertex="1" parent="WIyWlLk6GJQsqaUBKTNV-1">
          <mxGeometry x="500" y="410" width="120" height="60" as="geometry" />
        </mxCell>
        <mxCell id="8wQKcDK9LfEHcF6_p6gq-20" value="" style="edgeStyle=orthogonalEdgeStyle;rounded=0;orthogonalLoop=1;jettySize=auto;html=1;" edge="1" parent="WIyWlLk6GJQsqaUBKTNV-1" source="8wQKcDK9LfEHcF6_p6gq-15" target="8wQKcDK9LfEHcF6_p6gq-19">
          <mxGeometry relative="1" as="geometry" />
        </mxCell>
        <mxCell id="8wQKcDK9LfEHcF6_p6gq-15" value="bilangan ganjil" style="shape=parallelogram;perimeter=parallelogramPerimeter;whiteSpace=wrap;html=1;fixedSize=1;strokeWidth=2;" vertex="1" parent="WIyWlLk6GJQsqaUBKTNV-1">
          <mxGeometry x="354" y="525" width="120" height="60" as="geometry" />
        </mxCell>
        <mxCell id="8wQKcDK9LfEHcF6_p6gq-19" value="Finish" style="strokeWidth=2;html=1;shape=mxgraph.flowchart.start_1;whiteSpace=wrap;" vertex="1" parent="WIyWlLk6GJQsqaUBKTNV-1">
          <mxGeometry x="364" y="630" width="100" height="60" as="geometry" />
        </mxCell>
        <mxCell id="8wQKcDK9LfEHcF6_p6gq-30" value="" style="edgeStyle=orthogonalEdgeStyle;rounded=0;orthogonalLoop=1;jettySize=auto;html=1;" edge="1" parent="WIyWlLk6GJQsqaUBKTNV-1" target="8wQKcDK9LfEHcF6_p6gq-11">
          <mxGeometry relative="1" as="geometry">
            <mxPoint x="560" y="660" as="sourcePoint" />
            <Array as="points">
              <mxPoint x="560" y="610" />
              <mxPoint x="560" y="610" />
            </Array>
          </mxGeometry>
        </mxCell>
        <mxCell id="8wQKcDK9LfEHcF6_p6gq-31" value="" style="edgeStyle=orthogonalEdgeStyle;rounded=0;orthogonalLoop=1;jettySize=auto;html=1;" edge="1" parent="WIyWlLk6GJQsqaUBKTNV-1" target="8wQKcDK9LfEHcF6_p6gq-19">
          <mxGeometry relative="1" as="geometry">
            <mxPoint x="560" y="660" as="sourcePoint" />
            <Array as="points">
              <mxPoint x="560" y="660" />
            </Array>
          </mxGeometry>
        </mxCell>
      </root>
    </mxGraphModel>
  </diagram>
</mxfile>
